<?xml version="1.0" encoding="UTF-8"?>
<!DOCTYPE svg PUBLIC "-//W3C//DTD SVG 1.1//EN" "http://www.w3.org/Graphics/SVG/1.1/DTD/svg11.dtd">
<!-- Creator: CorelDRAW X7 -->
<svg xmlns="http://www.w3.org/2000/svg" xml:space="preserve" width="7.1118mm" height="7.1118mm" version="1.1" style="shape-rendering:geometricPrecision; text-rendering:geometricPrecision; image-rendering:optimizeQuality; fill-rule:evenodd; clip-rule:evenodd"
viewBox="0 0 711 711"
 xmlns:xlink="http://www.w3.org/1999/xlink">
 <defs>
  <style type="text/css">
   <![CDATA[
    .fil0 {fill:#8F8C8F}
    .fil1 {fill:#D2D8D8}
   ]]>
  </style>
 </defs>
 <g id="Layer_x0020_1">
  <metadata id="CorelCorpID_0Corel-Layer"/>
  <g id="_593662344">
   <path class="fil0" d="M-1384 1730c0,0 64,0 64,-64l0 -578c0,-64 -64,-64 -64,-64l-225 0c0,0 -64,0 -64,64l0 578c0,64 64,64 64,64l225 0zm-113 -27c-17,0 -32,-14 -32,-32 0,-17 15,-32 32,-32 18,0 33,15 33,32 0,18 -15,32 -33,32zm-48 -640c0,-4 2,-7 5,-7l87 0c3,0 5,3 5,7l0 2c0,4 -2,7 -5,7l-87 0c-3,0 -5,-4 -5,-7l0 -2zm-96 41l289 0 0 513 -289 0 0 -513z"/>
  </g>
  <g id="_593682816">
  </g>
  <g id="_593686344">
  </g>
  <g id="_593656416">
  </g>
  <g id="_593686296">
  </g>
  <g id="_593686944">
  </g>
  <g id="_593680368">
  </g>
  <g id="_593683128">
  </g>
  <g id="_593656992">
  </g>
  <g id="_593680152">
  </g>
  <g id="_593681712">
  </g>
  <g id="_593666400">
  </g>
  <g id="_593666040">
  </g>
  <g id="_593662584">
  </g>
  <g id="_593668344">
  </g>
  <g id="_593660400">
  </g>
  <g id="_593682504">
   <g>
    <path class="fil1" d="M356 473c-13,0 -26,-5 -35,-15l-305 -304c-19,-20 -19,-51 0,-70 20,-20 51,-20 70,0l270 269 269 -269c19,-20 51,-20 70,0 19,19 19,50 0,70l-304 304c-10,10 -23,15 -35,15z"/>
   </g>
   <g>
   </g>
   <g>
   </g>
   <g>
   </g>
   <g>
   </g>
   <g>
   </g>
   <g>
   </g>
   <g>
   </g>
   <g>
   </g>
   <g>
   </g>
   <g>
   </g>
   <g>
   </g>
   <g>
   </g>
   <g>
   </g>
   <g>
   </g>
   <g>
   </g>
  </g>
 </g>
</svg>
