<?xml version="1.0" encoding="UTF-8"?>
<!DOCTYPE svg PUBLIC "-//W3C//DTD SVG 1.1//EN" "http://www.w3.org/Graphics/SVG/1.1/DTD/svg11.dtd">
<!-- Creator: CorelDRAW X7 -->
<svg xmlns="http://www.w3.org/2000/svg" xml:space="preserve" width="20px" height="20px" version="1.1" style="shape-rendering:geometricPrecision; text-rendering:geometricPrecision; image-rendering:optimizeQuality; fill-rule:evenodd; clip-rule:evenodd"
viewBox="0 0 20 20"
 xmlns:xlink="http://www.w3.org/1999/xlink">
 <defs>
  <style type="text/css">
   <![CDATA[
    .fil0 {fill:darkgray}
    .fil1 {fill:#D2D8D8}
   ]]>
  </style>
 </defs>
 <g id="Layer_x0020_1">
  <metadata id="CorelCorpID_0Corel-Layer"/>
  <path class="fil0" d="M-79 98c-1,0 -2,0 -2,-1l-14 -13c-1,-1 -3,-3 -2,-3 1,-1 3,-1 4,0l14 14 14 -14c1,-1 2,-1 3,0 0,1 0,1 -1,2l-14 14c-1,1 -2,1 -2,1z"/>
  <g id="_593662344">
   <path class="fil1" d="M15 19c0,0 2,0 2,-2l0 -14c0,-2 -2,-2 -2,-2l-10 0c0,0 -2,0 -2,2l0 14c0,2 2,2 2,2l10 0zm-5 -1c-1,0 -1,0 -1,-1 0,0 0,0 1,0 1,0 1,0 1,0 0,1 0,1 -1,1zm-2 -16c0,0 0,0 0,0l4 0c0,0 0,0 0,0l0 0c0,0 0,0 0,0l-4 0c0,0 0,0 0,0l0 0zm-4 1l12 0 0 13 -12 0 0 -13z"/>
  </g>
 </g>
</svg>
